<?xml version="1.0" encoding="UTF-8"?>
<svg version="1.1" xmlns="http://www.w3.org/2000/svg" width="512" height="512">
<path d="M0 0 C2.57404666 2.10031606 5.08481919 4.23388112 7.53515625 6.4765625 C10.85915365 4.9677434 13.52798866 3.0185812 16.41015625 0.7890625 C33.75879376 -11.91633115 51.32312473 -15.43508122 72.53515625 -13.5234375 C78.1796814 -12.5954789 83.29797577 -10.78426397 88.53515625 -8.5234375 C89.52386719 -8.100625 90.51257813 -7.6778125 91.53125 -7.2421875 C108.14573226 0.86473718 120.92496029 17.02439745 127.11083984 34.13793945 C129.7599234 41.88857213 131.50276578 49.21699232 131.53515625 57.4765625 C132.45554687 57.44175781 133.3759375 57.40695313 134.32421875 57.37109375 C155.44728968 56.91937838 172.69567796 63.17398858 188.22265625 77.6640625 C204.41928945 94.55607888 208.26157837 115.14095879 207.91796875 137.56640625 C207.57021177 146.68189217 205.58362282 154.91908135 202.53515625 163.4765625 C202.17421875 164.53101563 201.81328125 165.58546875 201.44140625 166.671875 C198.79955548 173.5972981 195.10330984 179.92862876 191.47216797 186.3671875 C180.18746085 206.48068982 171.66645628 227.7474443 166.16015625 250.1640625 C165.93368408 251.07494629 165.70721191 251.98583008 165.47387695 252.92431641 C161.4171578 270.49581018 160.08882841 288.10137844 160.15039062 306.08032227 C160.14627091 308.13454487 160.14080187 310.18876513 160.1341095 312.24298096 C160.12251498 316.61394014 160.11985227 320.98477353 160.12446594 325.35574532 C160.13134672 332.26896088 160.11529257 339.18201413 160.09606934 346.09519958 C160.05525607 361.99133056 160.04364837 377.88745581 160.03253937 393.78363037 C160.0220255 408.41345639 160.00531199 423.04320294 159.96444368 437.67297977 C159.94609642 444.54595452 159.94219039 451.41873951 159.94937897 458.29173291 C159.95089805 462.55305475 159.94013687 466.81428087 159.9260006 471.07557678 C159.92199159 473.05209938 159.92313374 475.02864005 159.92977333 477.00515556 C159.93813264 479.6999662 159.92819104 482.39411206 159.91369629 485.08888245 C159.92403719 486.26433848 159.92403719 486.26433848 159.934587 487.46354109 C159.88740596 491.95693845 159.36280283 494.92230912 156.53515625 498.4765625 C153.6664437 499.288891 151.56906555 498.81366353 148.53515625 498.4765625 C145.9744109 495.91581715 146.28907302 494.23478077 146.25834525 490.74322993 C146.26299105 489.5305999 146.26299105 489.5305999 146.26773071 488.29347229 C146.2631996 487.43693351 146.25866849 486.58039473 146.25400007 485.69790024 C146.24127782 482.80969535 146.2429816 479.92167718 146.24462891 477.03344727 C146.2386475 474.96861019 146.23184286 472.90377535 146.22427368 470.83894348 C146.20654156 465.20931752 146.20191456 459.57975232 146.20064211 453.95010114 C146.1992211 450.42379388 146.19495187 446.89750208 146.18964767 443.37119865 C146.17110572 431.04018043 146.16298003 418.70920552 146.16455078 406.37817383 C146.16574511 394.93831982 146.14479385 383.49865667 146.11306345 372.05885082 C146.08673062 362.20877953 146.07619093 352.35876973 146.0774616 342.50866359 C146.07796737 336.6397314 146.07250353 330.77096774 146.0511055 324.902071 C145.88914532 277.15135689 145.88914532 277.15135689 150.53515625 255.4765625 C150.8264057 254.10516208 150.8264057 254.10516208 151.12353897 252.70605659 C152.38301973 246.89311974 153.85199262 241.18140588 155.53515625 235.4765625 C155.80279785 234.56406738 156.07043945 233.65157227 156.34619141 232.71142578 C162.85973053 210.9640758 172.37531583 190.875544 183.50219727 171.13842773 C193.20403194 153.56962458 197.63298635 130.95508117 191.97265625 111.2890625 C191.22212159 109.3267271 190.4086538 107.3873384 189.53515625 105.4765625 C189.06078125 104.39503906 188.58640625 103.31351562 188.09765625 102.19921875 C180.75366037 87.06988108 169.92175901 79.38545763 154.78515625 73.38671875 C146.81360199 70.87243492 138.63328317 71.29438454 130.36743164 71.58618164 C129.4005542 71.61188232 128.43367676 71.63758301 127.4375 71.6640625 C126.56601318 71.69886719 125.69452637 71.73367187 124.79663086 71.76953125 C122.53515625 71.4765625 122.53515625 71.4765625 120.77709961 70.23950195 C119.27090904 68.1014634 119.02334895 66.67648579 118.76171875 64.08203125 C118.66213867 63.21570068 118.56255859 62.34937012 118.45996094 61.45678711 C118.31155762 60.07438843 118.31155762 60.07438843 118.16015625 58.6640625 C115.88224007 40.65102587 109.55406127 23.73914698 95.22900391 11.73291016 C81.76735012 1.74823584 66.92529532 -0.84762567 50.53515625 0.4765625 C45.92238241 1.30922732 41.83015341 2.61500802 37.53515625 4.4765625 C36.60703125 4.87746094 35.67890625 5.27835938 34.72265625 5.69140625 C27.85070664 9.05905201 22.61055044 13.72039719 17.1640625 18.98828125 C16.29652344 19.80941406 15.42898438 20.63054688 14.53515625 21.4765625 C13.88417969 22.10175781 13.23320312 22.72695313 12.5625 23.37109375 C10.53515625 24.4765625 10.53515625 24.4765625 7.578125 24.453125 C3.86997224 23.26308881 2.4233846 21.74652374 -0.15234375 18.8515625 C-12.12779441 6.30329507 -27.28725031 0.15484852 -44.46484375 -0.5234375 C-59.90373924 0.16811437 -73.95571675 7.10080394 -84.5546875 18.2265625 C-95.35369829 30.94686969 -100.25211903 46.2560652 -101.12109375 62.6796875 C-101.48101829 65.60816441 -102.1548095 67.83777923 -103.46484375 70.4765625 C-105.98741562 71.73784843 -107.60096424 71.52904721 -110.41796875 71.43359375 C-128.59695265 70.99357987 -145.62801069 72.50587566 -159.71484375 85.54296875 C-171.74799615 98.83852777 -177.93195822 115.30473645 -177.44165039 133.32080078 C-176.62906113 149.52971566 -170.80975883 162.82525525 -163.18505859 176.82666016 C-149.81135204 201.40470234 -139.47846298 227.36984796 -133.65234375 254.7890625 C-133.35976685 256.1649353 -133.35976685 256.1649353 -133.0612793 257.56860352 C-129.90696519 273.36243653 -129.17070582 288.86851477 -129.20605469 304.92749023 C-129.20333803 307.02524944 -129.19977334 309.12300768 -129.19543457 311.22076416 C-129.18639695 316.86229806 -129.18981657 322.50375798 -129.19619274 328.145293 C-129.20128769 334.06334033 -129.19655257 339.98138171 -129.19342041 345.89942932 C-129.18979518 355.81716034 -129.19454633 365.73486143 -129.20410156 375.65258789 C-129.21502843 387.12671104 -129.21142419 398.60076334 -129.20044875 410.07488483 C-129.1913883 419.94184999 -129.19008314 429.80879379 -129.19532609 439.67576176 C-129.19844686 445.56317977 -129.19885126 451.45056439 -129.19225311 457.33798027 C-129.18649682 462.85796329 -129.19044482 468.37785414 -129.20204163 473.89782715 C-129.20469551 475.92720956 -129.2039108 477.95659969 -129.1995163 479.98597908 C-129.19408917 482.745474 -129.20085971 485.50466931 -129.21087646 488.2641449 C-129.20641502 489.07549517 -129.20195358 489.88684543 -129.19735694 490.72278208 C-129.23654063 496.24825938 -129.23654063 496.24825938 -131.46484375 498.4765625 C-137.21037946 499.11495536 -137.21037946 499.11495536 -139.46484375 498.4765625 C-142.8139443 494.26356461 -142.88683694 490.29059455 -142.83665466 485.12252808 C-142.84239151 483.86450164 -142.84239151 483.86450164 -142.84824425 482.58106053 C-142.85752783 479.77115607 -142.84553779 476.96174456 -142.83374023 474.15185547 C-142.83620856 472.13583675 -142.8400473 470.11981931 -142.84515381 468.10380554 C-142.85349813 463.75823577 -142.85267799 459.41279702 -142.8449688 455.06722641 C-142.8333642 448.17033618 -142.84557175 441.27361342 -142.86158752 434.3767395 C-142.89776557 417.22567777 -142.90402941 400.07461938 -142.90148926 382.92352295 C-142.89976944 369.6294528 -142.90718249 356.33552007 -142.94146782 343.04148781 C-142.95539017 337.32238277 -142.96151464 331.60350763 -142.94842339 325.8843956 C-142.83227401 272.60832728 -150.7842877 223.96418077 -179.15673828 177.69726562 C-191.27252606 157.12891818 -193.79864346 131.9353232 -188.68359375 108.96875 C-185.11612358 96.20581793 -178.86127145 85.76131788 -169.46484375 76.4765625 C-168.77777344 75.76757812 -168.09070313 75.05859375 -167.3828125 74.328125 C-155.20239408 62.53187562 -138.17820725 57.10507194 -121.46484375 57.2265625 C-119.12778391 57.27624718 -116.80011124 57.36476778 -114.46484375 57.4765625 C-114.45066406 56.868125 -114.43648438 56.2596875 -114.421875 55.6328125 C-113.31188198 35.23294081 -103.42949804 16.84425876 -88.83984375 2.8515625 C-63.84206695 -18.74437617 -26.45155127 -20.06351317 0 0 Z " fill="#000000" transform="translate(247.46484375,13.5234375)"/>
<path d="M0 0 C10.28915649 9.74266283 18.45568896 21.93140401 26.15771484 33.75585938 C28.87652534 37.90533204 31.76176995 41.8646329 34.8203125 45.76953125 C51.0632642 66.58150479 63.51337104 86.75451586 60.7578125 114.14453125 C58.65124063 125.0324308 52.77301319 136.41085762 43.7578125 143.14453125 C23.10984821 155.79634122 0.68447254 154.14227853 -22.59545898 151.86547852 C-37.34349426 150.48705177 -52.01008522 150.70384055 -66.7421875 152.14453125 C-112.06150312 156.56963648 -112.06150312 156.56963648 -129.86328125 143.171875 C-140.48950398 134.21932182 -146.35612962 122.55436361 -148.1171875 108.76953125 C-149.44541897 85.65830372 -137.23514525 66.61187136 -123.73242188 49.09814453 C-121.48812674 46.1560001 -119.32563664 43.15885323 -117.1796875 40.14453125 C-116.7770166 39.58072754 -116.3743457 39.01692383 -115.95947266 38.43603516 C-113.78562251 35.37496997 -111.65621089 32.28832372 -109.5625 29.171875 C-95.12726211 7.71665567 -80.12605247 -9.86262548 -53.8046875 -15.60546875 C-33.49564428 -17.03066477 -15.88814672 -13.14785661 0 0 Z M-83.68847656 16.77490234 C-89.824032 23.96369482 -95.30710568 31.52628941 -100.453125 39.44555664 C-103.54027844 44.17398931 -106.8312241 48.7074625 -110.2421875 53.20703125 C-110.74572754 53.87379883 -111.24926758 54.54056641 -111.76806641 55.22753906 C-113.72692494 57.82038762 -115.68659917 60.41260234 -117.65136719 63.00097656 C-127.53230669 76.09304458 -136.34512577 90.84718332 -135.03125 107.87890625 C-133.52259702 117.95556958 -129.46777808 126.8713182 -121.2421875 133.14453125 C-111.64768242 139.21782066 -101.72312807 140.50355813 -90.5546875 140.39453125 C-89.56138428 140.39066406 -88.56808105 140.38679687 -87.54467773 140.3828125 C-80.58849246 140.30390815 -73.72507006 139.82637757 -66.8046875 139.14453125 C-50.03842136 137.50949515 -33.58923712 137.78799758 -16.83837891 139.42163086 C10.23228079 142.25340803 10.23228079 142.25340803 34.83203125 132.79296875 C42.42094688 126.29698011 47.30148137 118.21125079 48.2421875 108.08203125 C49.30810073 87.40662345 37.97275817 71.02132718 25.51953125 55.61328125 C22.7637759 52.19007867 20.17617594 48.66495978 17.6328125 45.08203125 C17.22095703 44.50259766 16.80910156 43.92316406 16.38476562 43.32617188 C14.39813977 40.51467126 12.44708876 37.6846818 10.51953125 34.83203125 C-0.28411373 18.86643157 -12.38841221 2.33398441 -32.2421875 -2.23046875 C-52.99729098 -5.44138587 -69.85293702 1.17839102 -83.68847656 16.77490234 Z " fill="#000000" transform="translate(299.2421875,161.85546875)"/>
<path d="M0 0 C8.9082153 9.32139783 11.1330525 20.29283533 10.87890625 32.84375 C10.04130144 50.37539911 1.20544293 65.30924642 -11.39453125 76.953125 C-20.62891795 84.3674007 -31.82256579 88.80783929 -43.76953125 88.26953125 C-53.80576151 87.05980707 -61.22465831 83.09786998 -67.64453125 75.265625 C-75.42891955 64.1087088 -76.33788517 51.58172654 -74.1796875 38.50390625 C-70.66275752 22.59898411 -62.08314172 8.72367924 -48.84765625 -0.8984375 C-33.28831758 -10.70758579 -14.69194969 -12.55886075 0 0 Z M-48.01953125 15.828125 C-58.04764308 26.26663998 -62.00689264 39.52122022 -61.73828125 53.6640625 C-61.37078651 60.66789977 -58.61639147 66.2157705 -53.45703125 70.953125 C-48.16096872 74.41177808 -43.70607215 75.5739323 -37.39453125 74.953125 C-25.2412229 71.87330331 -15.50364406 64.28320023 -8.95703125 53.609375 C-3.54117838 43.42241365 -0.55224809 32.52727305 -3.015625 21.0625 C-5.10411798 14.26793616 -8.16942856 9.55318439 -14.39453125 5.953125 C-27.26758678 0.97803108 -38.42243506 7.20393031 -48.01953125 15.828125 Z " fill="#000000" transform="translate(409.39453125,115.046875)"/>
<path d="M0 0 C0.64839844 0.53367187 1.29679687 1.06734375 1.96484375 1.6171875 C12.52276353 11.2414137 19.56669194 26.15873362 20.2734375 40.40625 C20.62702768 52.94822937 19.87475906 63.27303055 11.75 73.5 C5.19087062 80.25875506 -3.36524258 83.95780051 -12.75 84.3125 C-27.53754766 83.954014 -39.62736375 76.86476237 -49.67382812 66.46728516 C-60.76094349 54.20042887 -65.57269525 38.06888537 -65.3125 21.85546875 C-64.36911335 10.2164359 -60.05586246 1.56142621 -51.625 -6.3125 C-35.57367549 -19.35198658 -14.17912836 -11.67170816 0 0 Z M-44.0859375 4.703125 C-50.82871699 11.92956378 -52.61515874 18.78438281 -52.34375 28.56640625 C-51.02608242 41.72810855 -44.78958178 53.1557876 -35.25 62.2109375 C-27.71861954 68.19943099 -19.73070971 72.00410701 -10 71 C-3.28131696 68.79905211 1.94819528 65.47836787 5.375 59.25 C8.95786569 50.17945395 8.1677832 39.10087519 4.9375 30.0625 C2.3244298 24.16653034 -0.93206634 18.99446952 -5 14 C-5.78310547 13.02933594 -5.78310547 13.02933594 -6.58203125 12.0390625 C-12.0653705 5.92867472 -20.02980977 1.46458457 -28.125 -0.0625 C-34.10598917 0.03396757 -39.34285248 0.83049378 -44.0859375 4.703125 Z " fill="#000000" transform="translate(157,119)"/>
<path d="M0 0 C13.70123088 9.82809141 21.64237391 22.9219203 24.6875 39.4375 C26.80154063 54.27387526 24.61762792 68.56566332 16.4375 81.375 C10.59270914 89.07833181 2.52018442 93.80395576 -7.0625 95.3125 C-18.20059465 95.94669756 -27.60137801 92.18635069 -36.1953125 85.25 C-48.79665656 73.534989 -55.33823646 58.24569654 -55.97973633 41.16601562 C-56.12021025 27.01707594 -52.27561257 13.63150157 -42.515625 3.12890625 C-30.39965675 -7.75123324 -13.5785304 -8.4865815 0 0 Z M-37.01953125 16.92578125 C-43.1814296 26.7068199 -44.18328974 38.70441754 -41.83203125 49.83203125 C-38.30866334 62.18539058 -32.62370574 72.74090901 -21.39453125 79.4296875 C-16.03066451 82.19739699 -9.25222974 82.5328358 -3.49609375 80.7265625 C3.62111526 77.00077523 8.01268542 70.58236241 10.6796875 63.1640625 C14.37396192 49.56760922 11.72965088 36.3038214 5.09765625 24.06640625 C-0.05016002 15.72088764 -6.20190887 10.49519704 -15.5625 7.375 C-24.82029014 6.59044151 -31.16277663 9.67519944 -37.01953125 16.92578125 Z " fill="#000000" transform="translate(223.5625,40.625)"/>
<path d="M0 0 C9.55979516 8.07346658 14.32607024 18.72188523 16.3125 30.9375 C17.51660458 47.14356334 14.2672653 63.54760246 4.20703125 76.6875 C-3.90522302 86.07034832 -13.72474607 93.93344726 -26.5625 94.96875 C-36.61219799 94.82096032 -44.91280552 91.56974779 -52.375 84.875 C-61.6700231 74.86829299 -65.42586287 60.19620068 -64.97265625 46.77734375 C-63.3211825 30.33047501 -57.62133372 14.60170048 -44.90625 3.51171875 C-31.37465846 -6.65556226 -14.68213122 -10.55122651 0 0 Z M-40.6875 17.9375 C-48.66161486 28.72925822 -52.76501116 41.54557552 -51.6875 54.9375 C-49.66557573 65.76074171 -45.71385925 73.37624502 -36.6875 79.9375 C-30.80794133 81.89735289 -24.10601218 81.9859079 -18.4375 79.3125 C-17.16190872 78.56276472 -15.91054182 77.77020932 -14.6875 76.9375 C-14.08164062 76.525 -13.47578125 76.1125 -12.8515625 75.6875 C-3.66538048 68.62737758 1.81648924 56.22169543 3.3125 44.9375 C4.07597596 33.36790274 2.63797801 23.22885488 -4.6875 13.9375 C-9.10984773 9.24024957 -13.6369928 7.28284044 -20 6.5625 C-28.41104526 7.41786053 -35.07444399 11.74296461 -40.6875 17.9375 Z " fill="#000000" transform="translate(327.6875,41.0625)"/>
</svg>
